<?xml version="1.0" encoding="UTF-8" standalone="no"?>
<!DOCTYPE svg PUBLIC "-//W3C//DTD SVG 1.1//EN" "http://www.w3.org/Graphics/SVG/1.1/DTD/svg11.dtd">
<!-- Created with Vectornator (http://vectornator.io/) -->
<svg height="100%" stroke-miterlimit="10" style="fill-rule:nonzero;clip-rule:evenodd;stroke-linecap:round;stroke-linejoin:round;" version="1.1" viewBox="0 0 180 180" width="100%" xml:space="preserve" xmlns="http://www.w3.org/2000/svg" xmlns:xlink="http://www.w3.org/1999/xlink">
<defs/>
<g id="Слой-1">
<path d="M0.220163 15.2604L0.220163 164.74L19.228 164.74L19.228 111.776L35.8368 94.0599L69.4235 139.273L69.4235 107.716L48.9393 79.2965L69.4235 56.9669L69.4235 33.7146L19.228 88.1546L19.228 15.2604L0.220163 15.2604ZM69.4235 33.7146L86.4014 15.2604L69.4235 15.2604L69.4235 33.7146ZM69.4235 56.9669L69.4235 107.716L88.4314 134.106L88.4314 111.776L105.04 94.0599L157.45 164.74L179.78 164.74L117.958 79.2965L176.827 15.2604L155.605 15.2604L88.4314 88.1546L88.4314 36.2982L69.4235 56.9669ZM88.4314 36.2982L107.808 15.2604L88.4314 15.2604L88.4314 36.2982ZM88.4314 134.106L88.4314 164.74L110.576 164.74L88.4314 134.106ZM69.4235 139.273L69.4235 164.74L88.2468 164.74L69.4235 139.273Z" fill="#545454" fill-rule="nonzero" opacity="1" stroke="none"/>
</g>
</svg>
